HIERARCHY
ROOT SpineBase
{
  OFFSET 0.000000 0.000000 0.000000
  CHANNELS 6 Xposition Yposition Zposition Zrotation Xrotation Yrotation
  JOINT SpineMid
  {
    OFFSET 0.000000 28.538030 0.000000
    CHANNELS 3 Zrotation Xrotation Yrotation
    JOINT SpineShoulder
    {
      OFFSET -0.049979 21.241666 -0.742692
      CHANNELS 3 Zrotation Xrotation Yrotation
      JOINT Neck
      {
        OFFSET -0.014914 7.052703 -0.557192
        CHANNELS 3 Zrotation Xrotation Yrotation
        JOINT Head
        {
          OFFSET -0.069471 14.499402 -0.104016
          CHANNELS 3 Zrotation Xrotation Yrotation
          End Site
          {
            OFFSET 0 0 0
          }
        }
      }
      JOINT ShoulderLeft
      {
        OFFSET -16.381201 -3.754872 -2.028489
        CHANNELS 3 Zrotation Xrotation Yrotation
        JOINT ElbowLeft
        {
          OFFSET -4.599892 -25.016105 1.220983
          CHANNELS 3 Zrotation Xrotation Yrotation
          JOINT WristLeft
          {
            OFFSET 0.696461 -19.218376 -3.287136
            CHANNELS 3 Zrotation Xrotation Yrotation
            JOINT HandLeft
            {
              OFFSET 0.859634 -5.911472 -0.481311
              CHANNELS 3 Zrotation Xrotation Yrotation
              JOINT HandTipLeft
              {
                OFFSET -0.775611 -5.395696 -1.816315
                CHANNELS 3 Zrotation Xrotation Yrotation
                End Site
                {
                  OFFSET 0 0 0
                }
              }
              JOINT ThumbLeft
              {
                OFFSET -2.371893 -0.946117 -1.423176
                CHANNELS 3 Zrotation Xrotation Yrotation
                End Site
                {
                  OFFSET 0 0 0
                }
              }
            }
          }
        }
      }
      JOINT ShoulderRight
      {
        OFFSET 15.574112 -2.850407 -1.615902
        CHANNELS 3 Zrotation Xrotation Yrotation
        JOINT ElbowRight
        {
          OFFSET 5.229520 -23.764816 4.813211
          CHANNELS 3 Zrotation Xrotation Yrotation
          JOINT WristRight
          {
            OFFSET -6.796008 -12.391455 -15.440138
            CHANNELS 3 Zrotation Xrotation Yrotation
            JOINT HandRight
            {
              OFFSET -2.472563 -1.485299 -2.390557
              CHANNELS 3 Zrotation Xrotation Yrotation
              JOINT HandTipRight
              {
                OFFSET -1.765176 0.831558 -4.155275
                CHANNELS 3 Zrotation Xrotation Yrotation
                End Site
                {
                  OFFSET 0 0 0
                }
              }
              JOINT ThumbRight
              {
                OFFSET -1.255139 -4.108599 2.299423
                CHANNELS 3 Zrotation Xrotation Yrotation
                End Site
                {
                  OFFSET 0 0 0
                }
              }
            }
          }
        }
      }
    }
  }
  JOINT HipLeft
  {
    OFFSET -6.475953 0.867891 -3.228698
    CHANNELS 3 Zrotation Xrotation Yrotation
    JOINT KneeLeft
    {
      OFFSET -2.758510 -30.925955 -0.667444
      CHANNELS 3 Zrotation Xrotation Yrotation
      JOINT AnkleLeft
      {
        OFFSET 2.983589 -32.897149 9.036721
        CHANNELS 3 Zrotation Xrotation Yrotation
        JOINT FootLeft
        {
          OFFSET 0.156724 -7.438082 -7.137869
          CHANNELS 3 Zrotation Xrotation Yrotation
          End Site
          {
            OFFSET 0 0 0
          }
        }
      }
    }
  }
  JOINT HipRight
  {
    OFFSET 6.705179 0.937720 -3.435517
    CHANNELS 3 Zrotation Xrotation Yrotation
    JOINT KneeRight
    {
      OFFSET 5.341305 -31.600510 -4.718670
      CHANNELS 3 Zrotation Xrotation Yrotation
      JOINT AnkleRight
      {
        OFFSET 0.886509 -36.161085 9.485693
        CHANNELS 3 Zrotation Xrotation Yrotation
        JOINT FootRight
        {
          OFFSET -0.232554 -6.646196 -5.155994
          CHANNELS 3 Zrotation Xrotation Yrotation
          End Site
          {
            OFFSET 0 0 0
          }
        }
      }
    }
  }
}
MOTION
Frames: 10
Frame Time: 0.033333
-13.571390 74.436855 354.028720 -0.000000 0.000000 0.898925 0.000000 0.000000 -0.898925 -0.000000 0.000000 0.000000 -0.000000 0.000000 0.000000 0.000000 0.000000 0.000000 -0.000000 0.000000 0.000000 -0.000000 0.000000 0.000000 -0.000000 0.000000 0.000000 -0.000000 0.000000 0.000000 0.000000 0.000000 0.000000 0.000000 0.000000 0.000000 -0.000000 0.000000 0.000000 -0.000000 0.000000 0.000000 -0.000000 0.000000 0.000000 -0.000000 0.000000 0.000000 0.000000 0.000000 0.000000 0.000000 0.000000 0.000000 0.000000 0.000000 -0.898925 -0.000000 0.000000 0.000000 -0.000000 0.000000 0.000000 0.000000 0.000000 0.000000 0.000000 0.000000 -0.898925 -0.000000 0.000000 0.000000 -0.000000 0.000000 0.000000 0.000000 0.000000 0.000000
-13.695062 74.503074 353.731694 -0.174497 0.212518 1.765290 0.167869 -0.217792 -1.764647 -0.000000 0.000000 0.000000 -0.000000 0.000000 0.000000 0.000000 0.000000 0.000000 -0.000000 0.000000 0.000000 -0.000000 0.000000 0.000000 1.197736 4.049551 0.447284 0.142299 -3.380036 -1.000311 0.000000 0.000000 0.000000 0.000000 0.000000 0.000000 -0.000000 0.000000 0.000000 -1.062678 2.240594 0.112637 -2.467993 -0.341921 2.197379 3.710999 -2.145306 -1.180425 0.000000 0.000000 0.000000 0.000000 0.000000 0.000000 0.167869 -0.217792 -1.764647 -0.000000 0.000000 0.000000 -0.044142 4.286473 0.129715 0.000000 0.000000 0.000000 0.167869 -0.217792 -1.764647 -0.000000 0.000000 0.000000 1.795137 -1.343604 -1.337520 0.000000 0.000000 0.000000
-13.796262 74.571800 353.434731 -0.328178 0.406592 2.391502 0.310935 -0.419925 -2.389198 -0.000000 0.000000 0.000000 -0.000000 0.000000 0.000000 0.000000 0.000000 0.000000 -0.000000 0.000000 0.000000 -0.000000 0.000000 0.000000 2.240143 7.584378 0.767266 0.146969 -6.399659 -1.769338 0.000000 0.000000 0.000000 0.000000 0.000000 0.000000 0.832764 0.289279 0.229971 -2.601598 3.677265 -0.134158 -5.909461 0.573123 3.944539 8.039443 -5.958246 -2.070798 0.000000 0.000000 0.000000 0.000000 0.000000 0.000000 0.310935 -0.419925 -2.389198 -0.000000 0.000000 0.000000 -0.105469 6.949602 0.240233 0.000000 0.000000 0.000000 0.310935 -0.419925 -2.389198 -0.000000 0.000000 0.000000 3.142286 -2.311687 -2.332454 0.000000 0.000000 0.000000
-13.874990 74.643035 353.137831 -0.461080 0.582259 2.778580 0.432337 -0.603908 -2.773958 -0.000000 0.000000 0.000000 0.774770 0.590558 0.004395 0.000000 0.000000 0.000000 -0.000000 0.000000 0.000000 -0.000000 0.000000 0.000000 3.117137 10.512843 0.981096 0.097633 -8.934574 -2.353676 0.000000 0.000000 0.000000 0.000000 0.000000 0.000000 1.083793 0.341223 0.290942 -3.283430 4.948790 -0.326912 -9.522779 2.565484 4.562398 12.439239 -11.101468 -1.731917 0.000000 0.000000 0.000000 0.000000 0.000000 0.000000 0.432337 -0.603908 -2.773958 -0.000000 0.000000 0.000000 -0.178009 8.010549 0.330174 0.000000 0.000000 0.000000 0.432337 -0.603908 -2.773958 -0.000000 0.000000 0.000000 4.057074 -2.880036 -3.007596 0.000000 0.000000 0.000000
-13.931246 74.716779 352.840995 -0.573231 0.739557 2.927777 -0.037910 -0.066575 -2.944336 -0.064004 -0.075933 -0.032979 1.453528 0.059580 0.067708 0.000000 0.000000 0.000000 0.672260 -0.594609 0.055319 -0.000000 0.000000 0.000000 3.820545 12.774837 1.110840 0.053877 -10.903962 -2.782665 0.000000 0.000000 0.000000 0.000000 0.000000 0.000000 1.894365 -0.263852 0.384006 -3.611387 5.964843 -0.607032 -12.054075 5.154790 3.456154 16.282297 -16.682420 0.445341 0.000000 0.000000 0.000000 0.000000 0.000000 0.000000 1.234516 -1.268184 -2.882275 -0.748604 -0.591471 -0.125037 -0.249441 8.540409 0.505011 0.000000 0.000000 0.000000 0.534758 -0.767836 -2.920494 -0.306548 -0.797813 -0.101927 4.860473 -2.232805 -3.346284 0.000000 0.000000 0.000000
-13.965031 74.793030 352.544222 -0.664653 0.878519 2.840399 -0.051479 -0.063581 -2.859105 -0.069232 -0.079099 -0.038285 1.446526 -0.082130 0.077876 0.000000 0.000000 0.000000 0.782956 -0.732564 0.065280 -0.000000 0.000000 0.000000 4.343540 14.334344 1.176564 0.056511 -12.258804 -3.074991 0.000000 0.000000 0.000000 0.000000 0.000000 0.000000 2.029693 -0.478180 0.386056 -3.602324 6.776695 -0.984421 -12.514242 7.515649 0.602046 19.175734 -21.765052 4.153478 0.000000 0.000000 0.000000 0.000000 0.000000 0.000000 1.614296 -1.580080 -2.775567 -1.258417 -0.719620 -0.212780 -0.131668 6.698128 0.629133 0.000000 0.000000 0.000000 0.701221 -1.942392 -3.021808 -0.450924 0.219090 0.094950 4.958187 -1.964310 -3.424674 0.000000 0.000000 0.000000
-13.968694 74.885422 352.244880 -0.737963 1.011351 2.618534 -0.073302 -0.026778 -2.638885 -0.066811 -0.063150 -0.042409 0.877895 -0.917091 0.074397 0.000000 0.000000 0.000000 0.877895 -0.917091 0.074397 0.440773 0.699314 -0.052675 4.105010 14.208448 1.295159 1.936457 -12.242259 -3.461425 0.000000 0.000000 0.000000 0.000000 0.000000 0.000000 2.176958 -0.958367 0.348570 -3.381089 7.534382 -1.472642 -14.462013 3.451157 6.723227 21.147849 -30.242231 -5.302072 0.000000 0.000000 0.000000 0.000000 0.000000 0.000000 2.075445 -1.812600 -2.538846 -1.986409 -0.970283 -0.332191 -0.586669 -6.730315 1.285188 0.000000 0.000000 0.000000 0.701318 -2.790816 -2.914334 -0.443521 0.920267 0.206994 3.100005 -0.732290 -1.996152 0.000000 0.000000 0.000000
-13.947400 74.964623 351.944703 -0.772698 1.089425 1.941117 -0.092435 0.007133 -1.962309 -0.049209 -0.046331 -0.043237 0.915852 -1.045987 0.078448 0.000000 0.000000 0.000000 0.915852 -1.045987 0.078448 0.824720 0.696322 -0.120684 3.735781 14.921191 1.427927 0.314977 -13.909244 -3.207478 0.000000 0.000000 0.000000 0.000000 0.000000 0.000000 1.992266 -1.245417 0.273210 -2.799657 7.971509 -1.967407 -7.995584 10.286727 -8.835923 32.351632 -41.199813 14.958200 0.000000 0.000000 0.000000 0.000000 0.000000 0.000000 2.562715 -2.057105 -1.837458 -2.858256 -1.137545 -0.482925 -0.639740 -6.510547 1.927725 0.000000 0.000000 0.000000 0.650452 -3.856130 -2.396709 -0.029672 2.742408 0.467116 3.456385 -0.257140 -2.672447 0.000000 0.000000 0.000000
-13.900404 75.041306 351.627522 -0.785904 1.153217 0.915841 -0.110597 0.011124 -0.937595 -0.048086 -0.036571 -0.044478 0.946216 -1.124821 0.081602 0.000000 0.000000 0.000000 0.946216 -1.124821 0.081602 1.231456 0.623884 -0.194476 3.459003 14.042410 1.365680 -1.379251 -13.361586 -2.896848 0.000000 0.000000 0.000000 0.000000 0.000000 0.000000 0.946216 -1.124821 0.081602 -0.766358 7.939508 -3.075244 -3.511339 9.384158 -14.463767 26.376289 -38.883696 12.806128 0.000000 0.000000 0.000000 0.000000 0.000000 0.000000 3.037222 -2.415362 -0.770029 -3.739572 -1.060894 -0.635944 1.250213 -7.543799 0.629671 0.000000 0.000000 0.000000 0.496828 -5.118436 -1.556492 0.163652 3.958762 0.635865 0.832693 0.351230 -0.659434 0.000000 0.000000 0.000000
-13.843855 75.119951 351.322833 -0.786193 1.205324 -0.253895 -0.132923 0.022766 0.231704 -0.050048 -0.024698 -0.045568 -0.174782 -1.286282 0.050773 0.000000 0.000000 0.000000 1.156192 -0.334842 -0.063770 1.596865 -0.428082 -0.119516 2.873993 12.698065 1.297312 -1.267233 -11.577072 -2.741247 0.000000 0.000000 0.000000 0.000000 0.000000 0.000000 0.970667 -1.202740 0.084262 0.170034 8.369478 -4.420833 -0.118364 6.822798 -17.159877 15.980327 -30.573911 11.555583 0.000000 0.000000 0.000000 0.000000 0.000000 0.000000 3.512172 -2.776978 0.448490 -4.607009 -0.905949 -0.779157 2.063986 -8.761808 0.388118 0.000000 0.000000 0.000000 0.320106 -6.475202 -0.585172 0.419463 5.277829 0.804703 -0.890382 1.173952 0.653421 0.000000 0.000000 0.000000
